{
  "accessors": [
    {
      "bufferView": 2,
      "componentType": 5126,
      "count": 60227,
      "max": [
        2.463819980621338,
        4.16871976852417,
        1.2716699838638306
      ],
      "min": [
        -2.463819980621338,
        -6.240190029144287,
        -6.922599792480469
      ],
      "type": "VEC3"
    },
    {
      "bufferView": 2,
      "byteOffset": 722724,
      "componentType": 5126,
      "count": 60227,
      "max": [
        0.9999943971633911,
        0.9999474287033081,
        0.9999927282333374
      ],
      "min": [
        -0.9999970197677612,
        -0.9999061822891235,
        -0.9999802112579346
      ],
      "type": "VEC3"
    },
    {
      "bufferView": 1,
      "componentType": 5126,
      "count": 60227,
      "max": [
        0.9997239708900452,
        0.9996979832649231
      ],
      "min": [
        0.0003715089987963438,
        0.002149580977857113
      ],
      "type": "VEC2"
    },
    {
      "bufferView": 0,
      "componentType": 5125,
      "count": 329028,
      "type": "SCALAR"
    },
    {
      "bufferView": 2,
      "byteOffset": 1445448,
      "componentType": 5126,
      "count": 1028,
      "max": [
        0.8921340107917786,
        -5.332429885864258,
        3.5475099086761475
      ],
      "min": [
        -0.8222339749336243,
        -6.097080230712891,
        2.8983700275421143
      ],
      "type": "VEC3"
    },
    {
      "bufferView": 2,
      "byteOffset": 1457784,
      "componentType": 5126,
      "count": 1028,
      "max": [
        0.9998511075973511,
        0.9999990463256836,
        0.9999151229858398
      ],
      "min": [
        -0.9998511075973511,
        -0.9985858798027039,
        -0.9987543821334839
      ],
      "type": "VEC3"
    },
    {
      "bufferView": 1,
      "byteOffset": 481816,
      "componentType": 5126,
      "count": 1028,
      "max": [
        0.9997730255126953,
        0.9994210004806519
      ],
      "min": [
        0.00019052000425290316,
        0.06875622272491455
      ],
      "type": "VEC2"
    },
    {
      "bufferView": 0,
      "byteOffset": 1316112,
      "componentType": 5125,
      "count": 5760,
      "type": "SCALAR"
    },
    {
      "bufferView": 2,
      "byteOffset": 1470120,
      "componentType": 5126,
      "count": 65532,
      "max": [
        2.1331799030303955,
        4.328680038452148,
        5.662499904632568
      ],
      "min": [
        -1.8247100114822388,
        -5.639289855957031,
        -6.767280101776123
      ],
      "type": "VEC3"
    },
    {
      "bufferView": 2,
      "byteOffset": 2256504,
      "componentType": 5126,
      "count": 65532,
      "max": [
        1.0,
        0.9999597072601318,
        1.0
      ],
      "min": [
        -0.999958872795105,
        -0.9999960660934448,
        -0.9999891519546509
      ],
      "type": "VEC3"
    },
    {
      "bufferView": 1,
      "byteOffset": 490040,
      "componentType": 5126,
      "count": 65532,
      "max": [
        0.9990500211715698,
        0.9999439716339111
      ],
      "min": [
        7.325399928959087e-05,
        0.0003284210106357932
      ],
      "type": "VEC2"
    },
    {
      "bufferView": 0,
      "byteOffset": 1339152,
      "componentType": 5125,
      "count": 353829,
      "type": "SCALAR"
    },
    {
      "bufferView": 2,
      "byteOffset": 3042888,
      "componentType": 5126,
      "count": 65532,
      "max": [
        1.9270600080490112,
        8.446539878845215,
        5.826920032501221
      ],
      "min": [
        -1.385509967803955,
        -6.265719890594482,
        -5.613959789276123
      ],
      "type": "VEC3"
    },
    {
      "bufferView": 2,
      "byteOffset": 3829272,
      "componentType": 5126,
      "count": 65532,
      "max": [
        0.9999980926513672,
        0.9999340772628784,
        0.9999974966049194
      ],
      "min": [
        -0.9999796152114868,
        -0.999984622001648,
        -0.9999666213989258
      ],
      "type": "VEC3"
    },
    {
      "bufferView": 1,
      "byteOffset": 1014296,
      "componentType": 5126,
      "count": 65532,
      "max": [
        0.9999679923057556,
        0.9993460178375244
      ],
      "min": [
        0.0003562539932318032,
        0.0005701180198229849
      ],
      "type": "VEC2"
    },
    {
      "bufferView": 0,
      "byteOffset": 2754468,
      "componentType": 5125,
      "count": 357300,
      "type": "SCALAR"
    },
    {
      "bufferView": 2,
      "byteOffset": 4615656,
      "componentType": 5126,
      "count": 65532,
      "max": [
        3.1717898845672607,
        5.544589996337891,
        4.755760192871094
      ],
      "min": [
        -2.9177300930023193,
        -6.555099964141846,
        -7.737800121307373
      ],
      "type": "VEC3"
    },
    {
      "bufferView": 2,
      "byteOffset": 5402040,
      "componentType": 5126,
      "count": 65532,
      "max": [
        0.9999991655349731,
        0.9999920129776001,
        0.9999856948852539
      ],
      "min": [
        -0.9999949932098389,
        -0.9999843835830688,
        -0.9999887943267822
      ],
      "type": "VEC3"
    },
    {
      "bufferView": 1,
      "byteOffset": 1538552,
      "componentType": 5126,
      "count": 65532,
      "max": [
        0.9978410005569458,
        0.9593619704246521
      ],
      "min": [
        0.0357804000377655,
        0.008722484111785889
      ],
      "type": "VEC2"
    },
    {
      "bufferView": 0,
      "byteOffset": 4183668,
      "componentType": 5125,
      "count": 364680,
      "type": "SCALAR"
    },
    {
      "bufferView": 2,
      "byteOffset": 6188424,
      "componentType": 5126,
      "count": 65532,
      "max": [
        2.9177300930023193,
        4.284329891204834,
        5.486660003662109
      ],
      "min": [
        -2.3528499603271484,
        -6.190979957580566,
        -7.737800121307373
      ],
      "type": "VEC3"
    },
    {
      "bufferView": 2,
      "byteOffset": 6974808,
      "componentType": 5126,
      "count": 65532,
      "max": [
        0.9999971389770508,
        0.9999563694000244,
        0.999996542930603
      ],
      "min": [
        -0.9999363422393799,
        -1.0,
        -0.9999998807907104
      ],
      "type": "VEC3"
    },
    {
      "bufferView": 1,
      "byteOffset": 2062808,
      "componentType": 5126,
      "count": 65532,
      "max": [
        0.9992660284042358,
        0.9997349977493286
      ],
      "min": [
        6.849299825262278e-05,
        9.703599789645523e-05
      ],
      "type": "VEC2"
    },
    {
      "bufferView": 0,
      "byteOffset": 5642388,
      "componentType": 5125,
      "count": 340785,
      "type": "SCALAR"
    },
    {
      "bufferView": 2,
      "byteOffset": 7761192,
      "componentType": 5126,
      "count": 65532,
      "max": [
        3.0988800525665283,
        0.7689880132675171,
        5.879109859466553
      ],
      "min": [
        -3.0988800525665283,
        -6.188610076904297,
        -7.737760066986084
      ],
      "type": "VEC3"
    },
    {
      "bufferView": 2,
      "byteOffset": 8547576,
      "componentType": 5126,
      "count": 65532,
      "max": [
        0.9999887943267822,
        0.9998921155929565,
        0.99997878074646
      ],
      "min": [
        -0.9999655485153198,
        -0.9997379779815674,
        -0.9999977350234985
      ],
      "type": "VEC3"
    },
    {
      "bufferView": 1,
      "byteOffset": 2587064,
      "componentType": 5126,
      "count": 65532,
      "max": [
        0.9998480081558228,
        0.9993829727172852
      ],
      "min": [
        0.00027167401276528835,
        0.00025612101308070123
      ],
      "type": "VEC2"
    },
    {
      "bufferView": 0,
      "byteOffset": 7005528,
      "componentType": 5125,
      "count": 354462,
      "type": "SCALAR"
    },
    {
      "bufferView": 2,
      "byteOffset": 9333960,
      "componentType": 5126,
      "count": 17447,
      "max": [
        1.2070800065994263,
        -1.6015000343322754,
        5.661200046539307
      ],
      "min": [
        -3.1717898845672607,
        -6.555099964141846,
        -7.737400054931641
      ],
      "type": "VEC3"
    },
    {
      "bufferView": 2,
      "byteOffset": 9543324,
      "componentType": 5126,
      "count": 17447,
      "max": [
        0.9999616146087646,
        0.9999727010726929,
        0.9998449087142944
      ],
      "min": [
        -0.9999736547470093,
        -0.9999055862426758,
        -0.9999744892120361
      ],
      "type": "VEC3"
    },
    {
      "bufferView": 1,
      "byteOffset": 3111320,
      "componentType": 5126,
      "count": 17447,
      "max": [
        0.9781039953231812,
        0.9995250105857849
      ],
      "min": [
        0.0006386589957401156,
        0.002058564918115735
      ],
      "type": "VEC2"
    },
    {
      "bufferView": 0,
      "byteOffset": 8423376,
      "componentType": 5125,
      "count": 98514,
      "type": "SCALAR"
    },
    {
      "bufferView": 2,
      "byteOffset": 9752688,
      "componentType": 5126,
      "count": 41376,
      "max": [
        1.554129958152771,
        1.3405400514602661,
        6.495039939880371
      ],
      "min": [
        -1.5542800426483154,
        -6.749899864196777,
        1.373420000076294
      ],
      "type": "VEC3"
    },
    {
      "bufferView": 2,
      "byteOffset": 10249200,
      "componentType": 5126,
      "count": 41376,
      "max": [
        0.9999953508377075,
        0.999985933303833,
        0.9998668432235718
      ],
      "min": [
        -0.9999948740005493,
        -0.9998266696929932,
        -0.9999830722808838
      ],
      "type": "VEC3"
    },
    {
      "bufferView": 1,
      "byteOffset": 3250896,
      "componentType": 5126,
      "count": 41376,
      "max": [
        0.8479200005531311,
        0.9999030232429504
      ],
      "min": [
        0.0003903500037267804,
        9.012199734570459e-05
      ],
      "type": "VEC2"
    },
    {
      "bufferView": 0,
      "byteOffset": 8817432,
      "componentType": 5125,
      "count": 238992,
      "type": "SCALAR"
    }
  ],
  "asset": {
    "extras": {
      "author": "Cozmoth (https://sketchfab.com/Cozmoth)",
      "license": "CC-BY-4.0 (http://creativecommons.org/licenses/by/4.0/)",
      "source": "https://sketchfab.com/3d-models/owl-demon-sculpt-fdb89a380d0546888dd167cbf9939cc6",
      "title": "owl demon sculpt"
    },
    "generator": "Sketchfab-15.25.0",
    "version": "2.0"
  },
  "bufferViews": [
    {
      "buffer": 0,
      "byteLength": 9773400,
      "name": "floatBufferViews",
      "target": 34963
    },
    {
      "buffer": 0,
      "byteLength": 3581904,
      "byteOffset": 9773400,
      "byteStride": 8,
      "name": "floatBufferViews",
      "target": 34962
    },
    {
      "buffer": 0,
      "byteLength": 10745712,
      "byteOffset": 13355304,
      "byteStride": 12,
      "name": "floatBufferViews",
      "target": 34962
    }
  ],
  "buffers": [
    {
      "byteLength": 24101016,
      "uri": "scene.bin"
    }
  ],
  "extensionsUsed": [
    "KHR_materials_specular",
    "KHR_materials_emissive_strength"
  ],
  "images": [
    {
      "uri": "textures/chains_baseColor.png"
    },
    {
      "uri": "textures/chains_metallicRoughness.png"
    },
    {
      "uri": "textures/material_baseColor.png"
    },
    {
      "uri": "textures/material_metallicRoughness.png"
    },
    {
      "uri": "textures/material_2_baseColor.png"
    },
    {
      "uri": "textures/material_2_metallicRoughness.png"
    },
    {
      "uri": "textures/mask_baseColor.png"
    },
    {
      "uri": "textures/mask_metallicRoughness.png"
    }
  ],
  "materials": [
    {
      "doubleSided": true,
      "extensions": {
        "KHR_materials_specular": {
          "specularColorFactor": [
            1.0,
            1.0,
            1.0
          ],
          "specularFactor": 0.8761931464933987
        }
      },
      "name": "chains",
      "pbrMetallicRoughness": {
        "baseColorTexture": {
          "index": 0
        },
        "metallicRoughnessTexture": {
          "index": 1
        }
      }
    },
    {
      "doubleSided": true,
      "emissiveFactor": [
        1.0,
        1.0,
        1.0
      ],
      "emissiveTexture": {
        "index": 2
      },
      "extensions": {
        "KHR_materials_emissive_strength": {
          "emissiveStrength": 2.5447696602503926
        }
      },
      "name": "material",
      "pbrMetallicRoughness": {
        "baseColorTexture": {
          "index": 2
        },
        "metallicRoughnessTexture": {
          "index": 3
        },
        "roughnessFactor": 0.14970930232558138
      }
    },
    {
      "doubleSided": true,
      "name": "material_2",
      "pbrMetallicRoughness": {
        "baseColorTexture": {
          "index": 4
        },
        "metallicRoughnessTexture": {
          "index": 5
        },
        "roughnessFactor": 0.9188599431922078
      }
    },
    {
      "doubleSided": true,
      "extensions": {
        "KHR_materials_specular": {
          "specularColorFactor": [
            1.0,
            1.0,
            1.0
          ],
          "specularFactor": 0.21790542599748874
        }
      },
      "name": "mask",
      "pbrMetallicRoughness": {
        "baseColorTexture": {
          "index": 6
        },
        "metallicRoughnessTexture": {
          "index": 7
        }
      }
    }
  ],
  "meshes": [
    {
      "name": "Object_0",
      "primitives": [
        {
          "attributes": {
            "NORMAL": 1,
            "POSITION": 0,
            "TEXCOORD_0": 2
          },
          "indices": 3,
          "material": 0,
          "mode": 4
        }
      ]
    },
    {
      "name": "Object_1",
      "primitives": [
        {
          "attributes": {
            "NORMAL": 5,
            "POSITION": 4,
            "TEXCOORD_0": 6
          },
          "indices": 7,
          "material": 1,
          "mode": 4
        }
      ]
    },
    {
      "name": "Object_2",
      "primitives": [
        {
          "attributes": {
            "NORMAL": 9,
            "POSITION": 8,
            "TEXCOORD_0": 10
          },
          "indices": 11,
          "material": 2,
          "mode": 4
        }
      ]
    },
    {
      "name": "Object_3",
      "primitives": [
        {
          "attributes": {
            "NORMAL": 13,
            "POSITION": 12,
            "TEXCOORD_0": 14
          },
          "indices": 15,
          "material": 2,
          "mode": 4
        }
      ]
    },
    {
      "name": "Object_4",
      "primitives": [
        {
          "attributes": {
            "NORMAL": 17,
            "POSITION": 16,
            "TEXCOORD_0": 18
          },
          "indices": 19,
          "material": 2,
          "mode": 4
        }
      ]
    },
    {
      "name": "Object_5",
      "primitives": [
        {
          "attributes": {
            "NORMAL": 21,
            "POSITION": 20,
            "TEXCOORD_0": 22
          },
          "indices": 23,
          "material": 2,
          "mode": 4
        }
      ]
    },
    {
      "name": "Object_6",
      "primitives": [
        {
          "attributes": {
            "NORMAL": 25,
            "POSITION": 24,
            "TEXCOORD_0": 26
          },
          "indices": 27,
          "material": 2,
          "mode": 4
        }
      ]
    },
    {
      "name": "Object_7",
      "primitives": [
        {
          "attributes": {
            "NORMAL": 29,
            "POSITION": 28,
            "TEXCOORD_0": 30
          },
          "indices": 31,
          "material": 2,
          "mode": 4
        }
      ]
    },
    {
      "name": "Object_8",
      "primitives": [
        {
          "attributes": {
            "NORMAL": 33,
            "POSITION": 32,
            "TEXCOORD_0": 34
          },
          "indices": 35,
          "material": 3,
          "mode": 4
        }
      ]
    }
  ],
  "nodes": [
    {
      "children": [
        1
      ],
      "matrix": [
        1.0,
        0.0,
        0.0,
        0.0,
        0.0,
        3.828568672208042e-16,
        -1.0,
        0.0,
        0.0,
        1.0,
        3.828568672208042e-16,
        0.0,
        0.0,
        0.0,
        0.0,
        1.0
      ],
      "name": "Sketchfab_model"
    },
    {
      "children": [
        2,
        3,
        4,
        5,
        6,
        7,
        8,
        9,
        10
      ],
      "name": "owlet .obj.cleaner.materialmerger.gles"
    },
    {
      "mesh": 0,
      "name": "Object_2"
    },
    {
      "mesh": 1,
      "name": "Object_3"
    },
    {
      "mesh": 2,
      "name": "Object_4"
    },
    {
      "mesh": 3,
      "name": "Object_5"
    },
    {
      "mesh": 4,
      "name": "Object_6"
    },
    {
      "mesh": 5,
      "name": "Object_7"
    },
    {
      "mesh": 6,
      "name": "Object_8"
    },
    {
      "mesh": 7,
      "name": "Object_9"
    },
    {
      "mesh": 8,
      "name": "Object_10"
    }
  ],
  "samplers": [
    {
      "magFilter": 9729,
      "minFilter": 9987,
      "wrapS": 10497,
      "wrapT": 10497
    }
  ],
  "scene": 0,
  "scenes": [
    {
      "name": "Sketchfab_Scene",
      "nodes": [
        0
      ]
    }
  ],
  "textures": [
    {
      "sampler": 0,
      "source": 0
    },
    {
      "sampler": 0,
      "source": 1
    },
    {
      "sampler": 0,
      "source": 2
    },
    {
      "sampler": 0,
      "source": 3
    },
    {
      "sampler": 0,
      "source": 4
    },
    {
      "sampler": 0,
      "source": 5
    },
    {
      "sampler": 0,
      "source": 6
    },
    {
      "sampler": 0,
      "source": 7
    }
  ]
}
